<?xml version="1.0" encoding="UTF-8"?>
<svg width="14px" height="17px" viewBox="0 0 14 17" version="1.1" xmlns="http://www.w3.org/2000/svg" xmlns:xlink="http://www.w3.org/1999/xlink">
    <!-- Generator: Sketch 52.2 (67145) - http://www.bohemiancoding.com/sketch -->
    <title>联系</title>
    <desc>Created with Sketch.</desc>
    <g id="Page-1" stroke="none" stroke-width="1" fill="none" fill-rule="evenodd" opacity="0.700079055">
        <g id="更多（列表）" transform="translate(-29.000000, -356.000000)" fill="#000000" fill-rule="nonzero">
            <g id="联系" transform="translate(29.000000, 356.000000)">
                <path d="M13.9932726,6.54475932 C13.9932726,6.42938696 14.0035144,6.23010743 13.9932726,6.17766544 L13.9625472,6.08326988 C13.7167437,2.16060965 11.7195902,0 6.99811459,0 C2.27663896,0 0.279485498,2.15012125 0.0336819946,6.08326988 L0.00295655664,6.17766544 C-0.007285256,6.23010743 0.0131983693,6.42938696 0.00295655664,6.54475932 L0.00295655664,10.4674195 C0.0131983693,10.5932803 -0.007285256,10.6876759 0.0131983693,10.7506062 C0.115616496,11.2645377 0.412629062,11.5791896 1.13979776,11.5791896 C2.65558603,11.5791896 3.50565648,10.1947212 3.50565648,8.48511264 C3.50565648,6.77550404 2.66582784,5.40152412 1.13979776,5.40152412 L0.883752444,5.40152412 C1.30366676,2.35988918 3.1164676,0.765652933 6.99811459,0.765652933 C10.8797616,0.765652933 12.6925624,2.35988918 13.1124767,5.40152412 L12.8564314,5.40152412 C11.3406431,5.40152412 10.4905727,6.78599243 10.4905727,8.49560104 C10.4905727,10.2052096 11.3304013,11.589678 12.8564314,11.589678 C12.9281241,11.589678 12.989575,11.589678 13.040784,11.5791896 C12.4672425,13.5824733 10.4496054,15.1032907 8.13495579,15.4179426 C8.02229585,14.6732665 7.33609441,14.1698235 6.60892571,14.2956842 C5.88175701,14.4110566 5.39015,15.1137791 5.51305176,15.8584553 C5.6257117,16.6031314 6.31191314,17.1065744 7.03908184,16.9807137 C7.47947978,16.9072949 7.85842685,16.6136198 8.03253767,16.1940839 C11.2279832,15.8689437 13.7986782,13.6139384 13.972789,10.7506062 C13.9830308,10.7086527 13.9830308,10.6666991 13.9830308,10.6247455 L13.9830308,10.425466 C13.972789,8.72634575 13.9830308,8.10753037 13.9830308,6.96429517 L13.9830308,6.56573611 C14.0035144,6.55524771 14.0035144,6.54475932 13.9932726,6.54475932 Z M1.46753576,6.17766544 C2.28688078,6.17766544 2.73752053,7.21601668 2.73752053,8.49560104 C2.73752053,9.77518539 2.28688078,10.8135366 1.46753576,10.8135366 C1.03737963,10.8135366 0.853027006,10.6457223 0.801817943,10.425466 C0.801817943,10.3520472 0.781334317,10.2891168 0.750608879,10.2366748 L0.801817943,10.2261864 L0.801817943,6.97478357 C0.801817943,6.82794602 0.801817943,6.68110847 0.812059755,6.54475932 C0.873510631,6.3035262 1.06810507,6.17766544 1.46753576,6.17766544 Z M6.81376196,16.2465259 C6.48602396,16.2360375 6.21973683,15.9528508 6.22997864,15.6172222 C6.24022045,15.2815935 6.5167494,15.0088952 6.8444874,15.0193836 C7.1722254,15.029872 7.42827072,15.3025703 7.42827072,15.6277105 C7.42827072,15.984316 7.15174178,16.2570143 6.81376196,16.2465259 Z M13.2251367,10.425466 C13.1739276,10.6457223 12.989575,10.8135366 12.5594189,10.8135366 C11.7400738,10.8135366 11.2894341,9.77518539 11.2894341,8.49560104 C11.2894341,7.21601668 11.7400738,6.17766544 12.5594189,6.17766544 C12.9486077,6.17766544 13.153444,6.3035262 13.2148949,6.53427092 C13.2148949,6.68110847 13.2251367,6.81745762 13.2251367,6.96429517 L13.2251367,10.425466 Z" id="形状"></path>
            </g>
        </g>
    </g>
</svg>