<?xml version="1.0" encoding="UTF-8"?>
<svg width="16px" height="16px" viewBox="0 0 16 16" version="1.1" xmlns="http://www.w3.org/2000/svg" xmlns:xlink="http://www.w3.org/1999/xlink">
    <!-- Generator: Sketch 52.2 (67145) - http://www.bohemiancoding.com/sketch -->
    <title>语言新</title>
    <desc>Created with Sketch.</desc>
    <g id="Page-1" stroke="none" stroke-width="1" fill="none" fill-rule="evenodd">
        <g id="更多（列表）" transform="translate(-28.000000, -249.000000)" fill="#333333" fill-rule="nonzero">
            <g id="语言新" transform="translate(36.000000, 257.000000) scale(-1, 1) translate(-36.000000, -257.000000) translate(28.000000, 249.000000)">
                <path d="M8,0 C3.697,0 0.188,3.417 0.017,7.679 C0.013,7.694 0.005,7.706 0.003,7.72 C-0.001,7.751 0.006,7.782 0.011,7.812 C0.009,7.875 0,7.936 0,8 C0,12.412 3.589,16 8,16 C12.411,16 16,12.412 16,8 C16,3.589 12.411,0 8,0 Z M14.063,8.527 C13.916,8.919 13.715,9.166 13.467,9.268 C13.13,9.405 12.78,9.229 12.779,9.227 C12.7586454,9.21635065 12.7371836,9.20796714 12.715,9.202 C12.083,9.02 12.192,7.676 12.28,7.22 C12.2994627,7.11962628 12.2717362,7.01587526 12.2047963,6.93859184 C12.1378564,6.86130842 12.0391238,6.81906011 11.937,6.824 C11.226,6.857 11.025,5.882 11.022,5.882 C10.934,4.404 13.276,3.624 13.762,3.48 C14.3692973,4.2522165 14.8148245,5.1388496 15.072,6.087 C13.937,6.643 14.02,8.141 14.063,8.527 Z M0.674,8.145 C1.498,8.27 2.354,8.469 2.521,8.621 C2.57,8.666 2.631,8.694 2.697,8.704 C2.76,8.712 4.227,8.913 4.911,7.955 C4.93712651,7.91794908 4.9558059,7.87617517 4.966,7.832 C4.997,7.688 5.082,7.515 5.117,7.49 C5.119,7.491 5.266,7.519 5.552,7.949 C5.7,8.167 6.146,8.466 6.802,8.106 C6.881,8.111 7.037,8.136 7.185,8.254 C7.399,8.425 7.536,8.75 7.581,9.191 C7.59076166,9.28944485 7.64378882,9.37845293 7.72571312,9.4339064 C7.80763742,9.48935988 7.90997638,9.50551707 8.005,9.478 C8.013,9.476 8.813,9.255 9.322,9.572 C9.525,9.697 9.655,9.896 9.718,10.177 C9.672,10.284 9.391,10.507 8.515,10.49 C8.47315667,10.4895667 8.43155042,10.4963319 8.392,10.51 C7.54359119,10.8403268 7.04750954,11.7248102 7.208,12.621 C7.145,12.809 6.906,13.377 6.275,13.322 L3.212,13.418 C3.17480961,13.4212971 3.13836664,13.4304079 3.104,13.445 C1.59430711,12.0915816 0.714260877,10.1721392 0.674,8.145 Z M8,15.332 C6.53165451,15.3332022 5.09712099,14.891271 3.884,14.064 L6.261,13.988 C7.274,14.062 7.758,13.193 7.873,12.72 C7.88467792,12.6745704 7.88638365,12.6271513 7.878,12.581 C7.706,11.632 8.366,11.251 8.57,11.157 C9.309,11.153 9.84,11.016 10.141,10.714 C10.386,10.468 10.391,10.212 10.39,10.163 C10.388988,10.1452354 10.3869849,10.1275412 10.384,10.11 C10.292,9.61 10.051,9.237 9.67,9.001 C9.179,8.7 8.57,8.714 8.188,8.765 C8.088,8.311 7.892,7.965 7.601,7.733 C7.3384891,7.52081376 7.00443657,7.41769787 6.668,7.445 C6.62006957,7.4504535 6.57395423,7.46650847 6.533,7.492 C6.293,7.64 6.146,7.623 6.105,7.577 C5.967,7.368 5.549,6.729 5.002,6.834 C4.568,6.917 4.392,7.4 4.334,7.614 C3.939,8.095 3.126,8.07 2.871,8.051 C2.411,7.754 1.319,7.563 0.694,7.473 C0.966,3.675 4.134,0.667 8.001,0.667 C10.078,0.667 11.952,1.539 13.287,2.931 C12.379,3.244 10.254,4.172 10.363,5.964 C10.454,6.437 10.816,7.265 11.576,7.452 C11.507,8.123 11.492,9.517 12.503,9.833 C12.597,9.876 12.862,9.983 13.192,9.983 C13.352,9.983 13.528,9.958 13.707,9.887 C14.162,9.709 14.503,9.299 14.719,8.672 C14.7369472,8.62068228 14.7420962,8.56575928 14.734,8.512 C14.732,8.499 14.553,7.282 15.225,6.778 C15.291,7.176 15.334,7.583 15.334,8 C15.334,12.043 12.044,15.332 8,15.332 Z M8.874,2.432 C8.70327489,2.27372241 8.50979263,2.14192526 8.3,2.041 C8.25302651,2.0195146 8.20159683,2.00957153 8.15,2.012 C7.87323982,2.01755703 7.61289895,2.14443664 7.438,2.359 C7.071,2.805 7.095,3.556 7.127,3.885 C6.847,4.247 6.726,4.616 6.766,4.984 C6.826,5.536 7.23,5.851 7.276,5.885 C7.32442229,5.9213063 7.38179956,5.9437733 7.442,5.95 C7.527,5.959 7.609,5.962 7.688,5.962 C8.602,5.962 9.262,5.434 9.548,4.473 C9.62,4.229 9.575,3.873 9.525,3.619 C9.46,3.289 9.041,2.583 8.874,2.432 Z M8.91,4.282 C8.701,4.98 8.272,5.316 7.613,5.293 C7.51274714,5.18865266 7.44800264,5.05531398 7.428,4.912 C7.405,4.697 7.505,4.458 7.726,4.205 C7.79044217,4.13085069 7.81897264,4.03209137 7.804,3.935 C7.763,3.668 7.744,3.036 7.952,2.783 C7.98891434,2.73522722 8.04119466,2.70166891 8.1,2.688 C8.174,2.73 8.295,2.807 8.422,2.922 C8.515,3.019 8.835,3.565 8.872,3.747 C8.929,4.04 8.926,4.227 8.91,4.282 Z" id="形状"></path>
            </g>
        </g>
    </g>
</svg>