<?xml version="1.0" encoding="UTF-8"?>
<svg width="15px" height="15px" viewBox="0 0 15 15" version="1.1" xmlns="http://www.w3.org/2000/svg" xmlns:xlink="http://www.w3.org/1999/xlink">
    <!-- Generator: Sketch 52.2 (67145) - http://www.bohemiancoding.com/sketch -->
    <title>公告</title>
    <desc>Created with Sketch.</desc>
    <g id="Page-1" stroke="none" stroke-width="1" fill="none" fill-rule="evenodd" opacity="0.700079055">
        <g id="更多（列表）" transform="translate(-28.000000, -302.000000)" fill="#000000" fill-rule="nonzero">
            <g id="公告" transform="translate(28.000000, 302.000000)">
                <path d="M4,9.17347336 L10,9.17347336 L10,10 L4,10 L4,9.17347336 Z M4,7.08673668 L10,7.08673668 L10,7.91520809 L4,7.91520809 L4,7.08673668 Z M4,5.82847141 L10,5.83041618 L10,5 L4,5 L4,5.82847141 Z" id="形状"></path>
                <path d="M14.4550028,10.0748771 C14.8155394,9.18138131 15,8.25603487 15,7.32733572 C15,6.33828789 14.8021241,5.37941439 14.4097261,4.47586053 C14.0324203,3.60415735 13.490777,2.8196245 12.8015651,2.14740724 C12.1123533,1.47518999 11.3107881,0.945462673 10.4169927,0.576665177 C9.49301286,0.194456862 8.51034097,0 7.49748463,0 C6.48462828,0 5.50363331,0.194456862 4.57797652,0.576665177 C3.68585802,0.945462673 2.88261599,1.47351363 2.19508105,2.14740724 C1.5058692,2.8196245 0.965902739,3.60415735 0.588596982,4.47586053 C0.199552823,5.37941439 0,6.33996424 0,7.32901207 C0,8.3180599 0.197875908,9.27693339 0.588596982,10.1804873 C0.965902739,11.0521904 1.50754612,11.8367233 2.19508105,12.5089405 C2.8842929,13.1811578 3.68585802,13.7108851 4.57965344,14.0796826 C5.50363331,14.4618909 6.48462828,14.6546714 7.49580771,14.6546714 L7.49916154,14.6546714 C8.90609279,14.6546714 9.57518167,14.6278498 10.6718837,14.0008941 C10.686976,13.9975414 10.7758524,13.9925123 11.077697,14.1199151 C11.2990497,14.2121144 11.5707099,14.3495753 11.8323086,14.4803308 C12.5131358,14.8206303 12.8988262,15 13.1302404,15 C13.2040246,15 13.2627166,14.9815601 13.3096702,14.9446804 C13.5176076,14.7820742 13.4086082,14.319401 13.1973169,13.5147519 C13.1285634,13.2498882 13.0564561,12.9766428 13.0162102,12.758717 C12.960872,12.4552973 12.9927334,12.3832141 12.9977641,12.373156 C13.608161,11.721055 14.1095584,10.926464 14.4550028,10.0748771 Z M12.1844606,12.7117792 C12.1928452,13.0135226 12.2431526,13.3035315 12.3169368,13.4979884 C12.2029067,13.4644613 12.0486305,13.4074654 11.9245388,13.3622038 C11.314142,13.139249 10.8261599,12.9783192 10.5595305,13.1141037 C9.62045836,13.5901878 8.56232532,13.8416406 7.49916154,13.8416406 C3.82671884,13.8416406 0.838457239,10.9197586 0.838457239,7.33068842 C0.838457239,3.74161824 3.82671884,0.821412606 7.49916154,0.821412606 C11.1732812,0.821412606 14.1615428,3.74161824 14.1615428,7.33068842 C14.1615428,9.06738936 13.2057015,10.8175011 12.3856903,11.7881091 C12.1945221,12.0127403 12.1777529,12.4620027 12.1844606,12.7117792 Z" id="形状"></path>
            </g>
        </g>
    </g>
</svg>