<?xml version="1.0" encoding="UTF-8"?>
<svg width="24px" height="24px" viewBox="0 0 24 24" version="1.1" xmlns="http://www.w3.org/2000/svg" xmlns:xlink="http://www.w3.org/1999/xlink">
    <!-- Generator: Sketch 52.2 (67145) - http://www.bohemiancoding.com/sketch -->
    <title>xiaoxi</title>
    <desc>Created with Sketch.</desc>
    <g id="Page-1" stroke="none" stroke-width="1" fill="none" fill-rule="evenodd">
        <g id="首页（涨幅榜）" transform="translate(-18.000000, -228.000000)" fill="#2C8CE3">
            <g id="xiaoxi" transform="translate(18.000000, 228.000000)">
                <path d="M12,24 C10.4307692,24 8.86153846,23.7230769 7.38461538,23.0769231 L3.69230769,23.0769231 C2.12307691,23.0769231 0.923076909,21.8769231 0.923076909,20.3076923 L0.923076909,16.6153846 C0.276923063,15.1384615 -2.52403848e-08,13.5692308 0,12 C-1.7934372e-16,5.35384614 5.35384614,0 12,0 C18.6461539,0 24,5.35384617 24,12 C24,18.6461538 18.6461538,24 12,24 Z M12,1.38461536 C6.18461538,1.38461536 1.38461536,6.18461538 1.38461536,12 C1.38461536,13.3846154 1.66153845,14.7692308 2.2153846,16.0615385 L2.3076923,16.3384615 L2.3076923,20.3076923 C2.3076923,21.0461539 2.95384615,21.6923077 3.69230769,21.6923077 L7.66153846,21.6923077 L7.93846153,21.7846154 C9.23076922,22.3384615 10.6153846,22.6153846 12,22.6153846 C17.8153846,22.6153846 22.6153846,17.8153846 22.6153846,12 C22.6153846,6.18461538 17.8153846,1.38461536 12,1.38461536 Z" id="形状" fill-rule="nonzero"></path>
                <path d="M12.0733715,18 C10.8539429,18 9.71580957,17.2285714 9.06544767,15.9428571 C8.90285718,15.6 9.06544767,15.2571428 9.30933339,15.0857143 C9.63451433,14.9142857 9.95969529,15.0857143 10.1222858,15.3428571 C10.5287619,16.2 11.2604191,16.7142857 11.9920762,16.7142857 C12.8050286,16.7142857 13.4553905,16.2 13.8618667,15.3428571 C14.0244572,15 14.3496381,14.9142857 14.6748191,15.0857143 C15,15.2571429 15.0812952,15.6 14.9187048,15.9428571 C14.4309334,17.1428571 13.2928,18 12.0733715,18 Z" id="路径"></path>
            </g>
        </g>
    </g>
</svg>