<?xml version="1.0" encoding="UTF-8"?>
<svg width="24px" height="19px" viewBox="0 0 24 19" version="1.1" xmlns="http://www.w3.org/2000/svg" xmlns:xlink="http://www.w3.org/1999/xlink">
    <!-- Generator: Sketch 52.2 (67145) - http://www.bohemiancoding.com/sketch -->
    <title>qiaquan</title>
    <desc>Created with Sketch.</desc>
    <g id="Page-1" stroke="none" stroke-width="1" fill="none" fill-rule="evenodd">
        <g id="首页（涨幅榜）" transform="translate(-247.000000, -724.000000)" fill="#ccc" fill-rule="nonzero">
            <g id="分组-3" transform="translate(0.000000, 709.000000)">
                <g id="qiaquan" transform="translate(247.610026, 15.261279)">
                    <path d="M18.9611115,18.6658465 L3.45848522,18.6658465 C1.56371977,18.6658465 0.013457151,17.1399956 0.013457151,15.2750665 L0.013457151,11.9690561 L0.530211359,11.8842866 C1.73597118,11.629978 2.59722819,10.5279745 2.59722819,9.34120155 C2.59722819,8.15442855 1.73597116,7.05242505 0.530211359,6.88288604 L0.013457151,6.71334704 L0.013457151,3.40733654 C0.013457151,1.54240754 1.56371977,0.0165565496 3.45848522,0.0165565496 L18.9611115,0.0165565496 C20.855877,0.0165565496 22.4061396,1.54240754 22.4061396,3.40733654 L22.4061396,6.71334704 L21.8893854,6.79811654 C20.6836256,7.05242505 19.8223685,8.15442855 19.8223686,9.34120155 C19.8223686,10.5279745 20.6836256,11.629978 21.8893854,11.7995171 L22.4061396,11.8842866 L22.4061396,15.2750665 C22.4061396,17.1399956 20.855877,18.6658465 18.9611115,18.6658465 Z M1.30534266,12.9015205 L1.30534266,15.2750665 C1.30534266,16.4618395 2.25272537,17.394304 3.45848522,17.394304 L18.9611115,17.394304 C20.1668714,17.394304 21.1142541,16.4618395 21.1142541,15.2750665 L21.1142541,12.9015205 C19.5639915,12.3929036 18.530483,10.951822 18.530483,9.34120155 C18.530483,7.73058105 19.5639915,6.28949954 21.1142541,5.78088254 L21.1142541,3.40733654 C21.1142541,2.22056354 20.1668714,1.28809905 18.9611115,1.28809905 L3.45848522,1.28809905 C2.25272539,1.28809905 1.30534266,2.22056354 1.30534266,3.40733654 L1.30534266,5.78088254 C2.85560528,6.28949954 3.88911372,7.73058105 3.88911372,9.34120155 C3.88911372,10.951822 2.85560531,12.3929036 1.30534266,12.9015205 Z" id="形状"></path>
                    <path d="M9.31503294,6.79811654 L13.1906895,6.79811654 C13.5351923,6.79811654 13.8796951,7.05242505 13.8796951,7.47627254 C13.8796951,7.81535053 13.621318,8.15442855 13.1906895,8.15442855 L9.31503294,8.15442855 C8.97053014,8.15442855 8.62602732,7.90012004 8.62602732,7.47627254 C8.62602732,7.05242505 8.88440443,6.79811654 9.31503294,6.79811654 Z M9.31503294,10.612744 L13.1906895,10.612744 C13.5351923,10.612744 13.8796951,10.8670526 13.8796951,11.2909001 C13.8796951,11.629978 13.621318,11.9690561 13.1906895,11.9690561 L9.31503294,11.9690561 C8.97053014,11.9690561 8.62602732,11.7147475 8.62602732,11.2909001 C8.62602732,10.8670526 8.88440443,10.612744 9.31503294,10.612744 Z" id="形状"></path>
                </g>
            </g>
        </g>
    </g>
</svg>