<?xml version="1.0" encoding="UTF-8"?>
<svg width="21px" height="21px" viewBox="0 0 21 21" version="1.1" xmlns="http://www.w3.org/2000/svg" xmlns:xlink="http://www.w3.org/1999/xlink">
    <!-- Generator: Sketch 52.2 (67145) - http://www.bohemiancoding.com/sketch -->
    <title>shouye</title>
    <desc>Created with Sketch.</desc>
    <g id="Page-1" stroke="none" stroke-width="1" fill="#ccc" fill-rule="evenodd">
        <g id="首页（涨幅榜）" transform="translate(-37.000000, -722.000000)">
            <g id="分组-3" transform="translate(0.000000, 709.000000)">
                <g id="shouye" transform="translate(37.000000, 13.630639)">
                    <path d="M17.2285047,20.2552747 L3.44839235,20.2552747 C1.5536269,20.2552747 0.00336428186,18.7294237 0.00336428186,16.8644947 L0.00336428186,7.96369718 C0.00336428186,6.86169368 0.52011849,5.84445969 1.46750122,5.25107317 L8.35755736,0.588750668 C9.56331718,-0.174174839 11.1135798,-0.174174839 12.233214,0.588750668 L19.1232701,5.25107317 C20.0706528,5.84445967 20.587407,6.94646316 20.587407,8.04846666 L20.587407,16.8644947 C20.6735327,18.7294237 19.1232701,20.2552747 17.2285047,20.2552747 Z M2.24263252,6.26830716 C1.63975261,6.69215465 1.29524981,7.28554115 1.29524981,8.04846666 L1.29524981,16.8644947 C1.29524981,18.0512677 2.24263252,18.9837322 3.44839235,18.9837322 L17.2285047,18.9837322 C18.4342645,18.9837322 19.3816472,18.0512677 19.3816472,16.8644947 L19.3816472,7.96369718 C19.3816472,7.28554118 19.0371444,6.60738517 18.4342645,6.18353768 L11.5442083,1.52121516 C10.8552027,1.01259816 9.8216943,1.01259816 9.13268868,1.52121516 L2.24263252,6.26830716 Z" id="形状" fill-rule="nonzero"></path>
                    <path d="M8.44368306,13.4737147 L12.3193397,13.4737147 C12.6638425,13.4737147 13.0083453,13.7280232 13.0083453,14.1518707 C13.0083453,14.4909487 12.7499682,14.8300267 12.3193397,14.8300267 L8.44368306,14.8300267 C8.09918027,14.8300267 7.75467744,14.5757182 7.75467744,14.1518707 C7.75467744,13.7280232 8.01305456,13.4737147 8.44368306,13.4737147 Z" id="路径"></path>
                </g>
            </g>
        </g>
    </g>
</svg>