<?xml version="1.0" encoding="UTF-8"?>
<svg width="24px" height="20px" viewBox="0 0 24 20" version="1.1" xmlns="http://www.w3.org/2000/svg" xmlns:xlink="http://www.w3.org/1999/xlink">
    <!-- Generator: Sketch 52.2 (67145) - http://www.bohemiancoding.com/sketch -->
    <title>分组</title>
    <desc>Created with Sketch.</desc>
    <g id="Page-1" stroke="none" stroke-width="1" fill="none" fill-rule="evenodd">
        <g id="首页（涨幅榜）" transform="translate(-107.000000, -724.000000)">
            <g id="分组-3" transform="translate(0.000000, 709.000000)">
                <g id="分组" transform="translate(107.000000, 16.000000)">
                    <g id="tubiaoshangshengqushi" transform="translate(0.000000, 1.354340)" fill="#2C8CE3">
                        <path d="M18.1641026,2.0649212 L18.1641026,5.63160326 C18.1641026,6.00704348 18.4235897,6.25733696 18.8128205,6.25733696 C19.2020513,6.25733696 19.4615385,6.00704348 19.4615385,5.63160326 L19.4615385,1.25146739 C19.4615385,0.563160326 18.8776923,0 18.1641026,0 L13.6230769,0 C13.2338462,0 12.974359,0.250293478 12.974359,0.625733696 C12.974359,1.00117391 13.2338462,1.25146739 13.6230769,1.25146739 L17.1910256,1.25146739 L11.6769231,6.57020381 L7.52512821,2.56550815 C7.39538462,2.44036141 7.20076923,2.37778804 7.07102564,2.37778804 C6.87641026,2.37778804 6.74666667,2.44036141 6.61692308,2.56550815 L0.194615385,8.76027174 C-0.0648717949,9.01056522 -0.0648717949,9.38600544 0.194615385,9.63629892 C0.454102564,9.88659239 0.843333333,9.88659239 1.10282051,9.63629892 L7.07102564,3.87954891 L11.2228205,7.88424457 C11.3525641,8.00939131 11.5471795,8.07196468 11.6769231,8.07196468 C11.8715385,8.07196468 12.0012821,8.00939131 12.1310256,7.88424457 L18.1641026,2.0649212 Z" id="路径"></path>
                    </g>
                    <path d="M2.34934739,14.0273165 L2.34934739,14.0273165 C2.34934739,16.0435151 3.98379932,17.677967 5.99999796,17.677967 L17.5275676,17.677967 C20.2889914,17.677967 22.5275676,15.4393908 22.5275676,12.677967 L22.5275676,0.257356823" id="路径-2" stroke="#2C8CE3" stroke-width="1.2" stroke-linecap="round"></path>
                </g>
            </g>
        </g>
    </g>
</svg>