<?xml version="1.0" encoding="UTF-8"?>
<svg width="22px" height="21px" viewBox="0 0 22 21" version="1.1" xmlns="http://www.w3.org/2000/svg" xmlns:xlink="http://www.w3.org/1999/xlink">
    <!-- Generator: Sketch 52.2 (67145) - http://www.bohemiancoding.com/sketch -->
    <title>kaikezhidao</title>
    <desc>Created with Sketch.</desc>
    <g id="Page-1" stroke="none" stroke-width="1" fill="none" fill-rule="evenodd">
        <g id="首页（涨幅榜）" transform="translate(-315.000000, -723.000000)" fill="#2C8CE3" fill-rule="nonzero">
            <g id="分组-3" transform="translate(0.000000, 709.000000)">
                <g id="kaikezhidao" transform="translate(315.952116, 14.000000)">
                    <path d="M6.20441482,9.3279563 L3.27614096,9.3279563 C1.46750122,9.3279563 0.00336428186,7.88687481 0.00336428186,6.10671531 L0.00336428186,3.22455232 C0.00336428186,1.44439282 1.46750122,0.00331130528 3.27614096,0.00331130528 L6.29054053,0.00331130528 C8.01305456,0.00331130528 9.4771915,1.44439282 9.47719148,3.22455232 L9.47719148,6.19148482 C9.47719148,7.88687481 8.01305454,9.32795632 6.20441482,9.3279563 Z M3.27614096,1.27485381 C2.24263255,1.27485381 1.38137552,2.12254882 1.38137552,3.13978281 L1.38137552,6.10671531 C1.38137552,7.12394931 2.24263255,7.97164432 3.27614096,7.97164432 L6.29054053,7.97164432 C7.32404894,7.97164432 8.18530597,7.12394931 8.18530597,6.10671531 L8.18530597,3.22455232 C8.18530597,2.20731832 7.32404894,1.35962331 6.29054053,1.35962331 L3.27614096,1.35962331 L3.27614096,1.27485381 Z M15.9366191,9.3279563 C13.3528481,9.3279563 11.1997055,7.20871881 11.1997055,4.6656338 C11.1997055,2.1225488 13.3528481,0.00331130528 15.9366191,0.00331130528 C18.5203902,0.00331130528 20.6735327,2.12254882 20.6735327,4.6656338 C20.6735327,7.20871879 18.5203902,9.3279563 15.9366191,9.3279563 Z M15.9366191,1.27485381 C14.0418537,1.27485381 12.4915911,2.8007048 12.491591,4.6656338 C12.491591,6.53056281 14.0418537,8.0564138 15.9366191,8.05641382 C17.8313846,8.05641384 19.3816472,6.53056283 19.3816472,4.6656338 C19.3816472,2.80070478 17.8313846,1.27485381 15.9366191,1.27485381 Z" id="形状"></path>
                    <path d="M6.20441482,20.3479913 L3.27614096,20.3479913 C1.46750122,20.3479913 0.00336428186,18.9069098 0.00336428186,17.1267503 L0.00336428186,14.1598178 C0.00336428186,12.4644278 1.46750122,11.0233463 3.27614096,11.0233463 L6.29054053,11.0233463 C8.09918027,11.0233463 9.56331721,12.4644278 9.56331718,14.2445873 L9.56331718,17.2115198 C9.47719148,18.9069098 8.01305456,20.3479913 6.20441482,20.3479913 Z M3.27614096,12.2948888 C2.24263255,12.2948888 1.38137552,13.1425838 1.38137552,14.1598178 L1.38137552,17.1267503 C1.38137552,18.1439843 2.24263255,18.9916793 3.27614096,18.9916793 L6.29054053,18.9916793 C7.32404894,18.9916793 8.18530597,18.1439843 8.18530597,17.1267503 L8.18530597,14.1598178 C8.18530597,13.1425838 7.32404894,12.2948888 6.29054053,12.2948888 L3.27614096,12.2948888 Z M17.4007561,20.3479913 L14.3863565,20.3479913 C12.5777167,20.3479913 11.1135798,18.9069098 11.1135798,17.1267503 L11.1135798,14.1598178 C11.1135798,12.3796583 12.5777168,10.9385768 14.3863565,10.9385768 L17.4007561,10.9385768 C19.2093958,10.9385768 20.6735327,12.3796583 20.6735327,14.1598178 L20.6735327,17.1267503 C20.6735327,18.9069098 19.2093958,20.3479913 17.4007561,20.3479913 Z M14.4724822,12.2948888 C13.4389738,12.2948888 12.5777167,13.1425838 12.5777167,14.1598178 L12.5777167,17.1267503 C12.5777167,18.1439843 13.4389738,18.9916793 14.4724822,18.9916793 L17.4868818,18.9916793 C18.5203902,18.9916793 19.3816472,18.1439843 19.3816472,17.1267503 L19.3816472,14.1598178 C19.3816472,13.1425838 18.5203902,12.2948888 17.4868818,12.2948888 L14.4724822,12.2948888 Z" id="形状"></path>
                </g>
            </g>
        </g>
    </g>
</svg>