<?xml version="1.0" encoding="UTF-8"?>
<svg width="20px" height="21px" viewBox="0 0 20 21" version="1.1" xmlns="http://www.w3.org/2000/svg" xmlns:xlink="http://www.w3.org/1999/xlink">
    <!-- Generator: Sketch 52.2 (67145) - http://www.bohemiancoding.com/sketch -->
    <title>dingdan</title>
    <desc>Created with Sketch.</desc>
    <g id="Page-1" stroke="none" stroke-width="1" fill="none" fill-rule="evenodd">
        <g id="首页（涨幅榜）" transform="translate(-177.000000, -723.000000)" fill="#ccc" fill-rule="nonzero">
            <g id="分组-3" transform="translate(0.000000, 709.000000)">
                <g id="dingdan" transform="translate(177.099755, 14.000000)">
                    <path d="M12.0744197,20.3479913 L3.4618495,20.3479913 C1.56708406,20.3479913 0.0168214329,18.8221403 0.0168214329,16.9572113 L0.0168214329,6.78487132 C0.0168214329,3.05501331 3.1173467,0.00331130528 6.90687757,0.00331130528 L15.5194478,0.00331130528 C17.4142132,0.00331130528 18.9644758,1.5291623 18.9644758,3.3940913 L18.9644758,13.5664313 C18.9644758,17.2962893 15.8639506,20.3479913 12.0744197,20.3479913 Z M6.90687757,1.27485381 C3.8063523,1.27485381 1.30870694,3.73316931 1.30870696,6.78487132 L1.30870696,16.9572113 C1.30870696,18.1439843 2.25608967,19.0764488 3.4618495,19.0764488 L12.0744197,19.0764488 C15.174945,19.0764488 17.6725903,16.6181333 17.6725903,13.5664313 L17.6725903,3.3940913 C17.6725903,2.2073183 16.7252076,1.27485381 15.5194478,1.27485381 L6.90687757,1.27485381 Z" id="形状"></path>
                    <path d="M6.73462618,7.6325663 L8.88776872,7.6325663 C9.23227151,7.6325663 9.57677433,7.88687481 9.57677433,8.31072231 C9.57677433,8.6498003 9.31839722,8.98887831 8.88776872,8.98887831 L6.73462618,8.98887831 C6.39012338,8.98887831 6.04562056,8.7345698 6.04562056,8.31072231 C6.04562056,7.88687481 6.30399768,7.6325663 6.73462618,7.6325663 Z M6.73462618,11.4471938 L12.3327968,11.4471938 C12.6772996,11.4471938 13.0218024,11.7015023 13.0218024,12.1253498 C13.0218024,12.4644278 12.7634253,12.8035058 12.3327968,12.8035058 L6.73462618,12.8035058 C6.39012338,12.8035058 6.04562056,12.5491973 6.04562056,12.1253498 C6.04562056,11.7015023 6.30399768,11.4471938 6.73462618,11.4471938 Z" id="形状"></path>
                </g>
            </g>
        </g>
    </g>
</svg>