<?xml version="1.0" encoding="UTF-8"?>
<svg width="17px" height="17px" viewBox="0 0 17 17" version="1.1" xmlns="http://www.w3.org/2000/svg" xmlns:xlink="http://www.w3.org/1999/xlink">
    <!-- Generator: Sketch 52.2 (67145) - http://www.bohemiancoding.com/sketch -->
    <title>system-serchb copy</title>
    <desc>Created with Sketch.</desc>
    <g id="Page-1" stroke="none" stroke-width="1" fill="none" fill-rule="evenodd" opacity="0.611979167">
        <g id="首页（未登录）" transform="translate(-1269.000000, -523.000000)" fill="#868686" fill-rule="nonzero">
            <g id="system-serchb-copy" transform="translate(1269.000000, 523.000000)">
                <path d="M13.2134677,12.2579807 L17,16.0400504 L16.0389178,17 L12.2513018,13.2168267 C10.9561038,14.292764 9.29136825,14.939812 7.47542641,14.939812 C3.34685256,14.939812 0,11.5954182 0,7.46990599 C0,3.34439381 3.34685256,0 7.47542641,0 C11.603979,0 14.9508316,3.34439381 14.9508316,7.46990599 C14.9508316,9.2918788 14.2980691,10.9615076 13.2134677,12.2579807 Z M7.51923077,13.7307692 C10.9497765,13.7307692 13.7307692,10.9497734 13.7307692,7.51923077 C13.7307692,4.08868811 10.9497765,1.30769231 7.51923077,1.30769231 C4.08868509,1.30769231 1.30769231,4.08868811 1.30769231,7.51923077 C1.30769231,10.9497734 4.08868509,13.7307692 7.51923077,13.7307692 Z" id="形状"></path>
            </g>
        </g>
    </g>
</svg>